<svg xmlns="http://www.w3.org/2000/svg" viewBox="0 0 496 496" xml:space="preserve">
  <path fill="#ffc114" d="m35.2 283.2 200 76.8L248 496l-136-12.8z"/>
  <path fill="#ffcd50" d="m248 496-136-12.8-76.8-200"/>
  <path fill="#f9a035" d="m120 368 46.4 120 81.6 8-8-81.6z"/>
  <path fill="#ff9a15" d="m248 496-8-81.6L120 368"/>
  <path fill="#ffc114" d="m460.8 283.2-76.8 200L248 496l12.8-136z"/>
  <path fill="#ffcd50" d="m248 496 12.8-136 200-76.8"/>
  <path fill="#f9a035" d="m376 368-120 46.4-8 81.6 81.6-8z"/>
  <path fill="#ff9a15" d="m248 496 81.6-8L376 368"/>
  <path fill="#eaad13" d="m248 0 143.2 322.4L248 496 104.8 322.4z"/>
  <path fill="#ffcd50" d="M248 496 104.8 322.4 248 0"/>
  <path fill="#f9a035" d="M248 197.6 162.4 392 248 496l85.6-104z"/>
  <path fill="#ef8a11" d="m248 496 85.6-104L248 197.6"/>
  <path fill="#ffc114" d="m48 75.2 80 101.6-35.2 73.6-66.4-48z"/>
  <path fill="#ffcd50" d="m92.8 250.4-66.4-48L48 75.2"/>
  <path fill="#f9a035" d="m65.6 145.6-12.8 76 40 28.8 20.8-44z"/>
  <path fill="#ff9a15" d="m92.8 250.4 20.8-44-48-60.8"/>
  <path fill="#ffc114" d="m448 75.2-80 101.6 35.2 73.6 66.4-48z"/>
  <path fill="#ffcd50" d="m403.2 250.4 66.4-48L448 75.2"/>
  <path fill="#f9a035" d="m430.4 145.6 12.8 76-40 28.8-20.8-44z"/>
  <path fill="#ff9a15" d="m403.2 250.4-20.8-44 48-60.8"/>
</svg>